<mxfile host="65bd71144e">
    <diagram id="8NVEbFYH0CTecISd1Mc0" name="Page-1">
        <mxGraphModel dx="670" dy="1634" grid="1" gridSize="10" guides="1" tooltips="1" connect="1" arrows="0" fold="1" page="1" pageScale="1" pageWidth="850" pageHeight="1100" math="0" shadow="0">
            <root>
                <mxCell id="0"/>
                <mxCell id="1" parent="0"/>
                <mxCell id="2" value="hr_employee (nhân viên)" style="swimlane;fontStyle=1;align=center;verticalAlign=top;childLayout=stackLayout;horizontal=1;startSize=26;horizontalStack=0;resizeParent=1;resizeParentMax=0;resizeLast=0;collapsible=1;marginBottom=0;" parent="1" vertex="1">
                    <mxGeometry x="1020" y="700" width="380" height="194" as="geometry">
                        <mxRectangle x="160" y="110" width="100" height="26" as="alternateBounds"/>
                    </mxGeometry>
                </mxCell>
                <mxCell id="3" value="+ id: integer&#10;+ name: Char()&#10;+ department_id: Many2one('hr.department')&#10;+ position: Char(compute=_compute_position,readonly=True) -nw-&#10;+ user_id: Many2one('res.users')&#10;+ business_trip_count: Integer() -nw-&#10;+ business_trip_ids: One2many('fleet_business_trip') -nw-&#10;+ business_rent_count: Integer() -nw-&#10;+ business_rent_ids: One2many('fleet_business_rent') -nw-" style="text;strokeColor=none;fillColor=none;align=left;verticalAlign=top;spacingLeft=4;spacingRight=4;overflow=hidden;rotatable=0;points=[[0,0.5],[1,0.5]];portConstraint=eastwest;labelBackgroundColor=default;" parent="2" vertex="1">
                    <mxGeometry y="26" width="380" height="134" as="geometry"/>
                </mxCell>
                <mxCell id="4" value="" style="line;strokeWidth=1;fillColor=none;align=left;verticalAlign=middle;spacingTop=-1;spacingLeft=3;spacingRight=3;rotatable=0;labelPosition=right;points=[];portConstraint=eastwest;" parent="2" vertex="1">
                    <mxGeometry y="160" width="380" height="8" as="geometry"/>
                </mxCell>
                <mxCell id="5" value="+ method(type): type" style="text;strokeColor=none;fillColor=none;align=left;verticalAlign=top;spacingLeft=4;spacingRight=4;overflow=hidden;rotatable=0;points=[[0,0.5],[1,0.5]];portConstraint=eastwest;" parent="2" vertex="1">
                    <mxGeometry y="168" width="380" height="26" as="geometry"/>
                </mxCell>
                <mxCell id="6" value="&lt;span&gt;Sơ đồ&amp;nbsp;&lt;/span&gt;class của hệ thống mượn xe đi công tác (fleet_business_trip)&amp;nbsp;" style="text;html=1;align=center;verticalAlign=middle;resizable=0;points=[];autosize=1;strokeColor=none;fillColor=none;fontStyle=1" parent="1" vertex="1">
                    <mxGeometry x="80" y="-390" width="410" height="20" as="geometry"/>
                </mxCell>
                <mxCell id="7" value="hr_department (phòng ban)" style="swimlane;fontStyle=1;align=center;verticalAlign=top;childLayout=stackLayout;horizontal=1;startSize=26;horizontalStack=0;resizeParent=1;resizeParentMax=0;resizeLast=0;collapsible=1;marginBottom=0;" parent="1" vertex="1">
                    <mxGeometry x="1020" y="900" width="380" height="134" as="geometry">
                        <mxRectangle x="160" y="110" width="100" height="26" as="alternateBounds"/>
                    </mxGeometry>
                </mxCell>
                <mxCell id="8" value="+ id: integer&#10;+ name: Char()&#10;+ manager_id: Many2one('hr_employee')&#10;+ vice_manager_id: Many2one('hr_employee') -nw-" style="text;strokeColor=none;fillColor=none;align=left;verticalAlign=top;spacingLeft=4;spacingRight=4;overflow=hidden;rotatable=0;points=[[0,0.5],[1,0.5]];portConstraint=eastwest;" parent="7" vertex="1">
                    <mxGeometry y="26" width="380" height="74" as="geometry"/>
                </mxCell>
                <mxCell id="9" value="" style="line;strokeWidth=1;fillColor=none;align=left;verticalAlign=middle;spacingTop=-1;spacingLeft=3;spacingRight=3;rotatable=0;labelPosition=right;points=[];portConstraint=eastwest;" parent="7" vertex="1">
                    <mxGeometry y="100" width="380" height="8" as="geometry"/>
                </mxCell>
                <mxCell id="10" value="+ method(type): type" style="text;strokeColor=none;fillColor=none;align=left;verticalAlign=top;spacingLeft=4;spacingRight=4;overflow=hidden;rotatable=0;points=[[0,0.5],[1,0.5]];portConstraint=eastwest;" parent="7" vertex="1">
                    <mxGeometry y="108" width="380" height="26" as="geometry"/>
                </mxCell>
                <mxCell id="27" value="hr_employee (trưởng phòng)" style="swimlane;fontStyle=1;align=center;verticalAlign=top;childLayout=stackLayout;horizontal=1;startSize=26;horizontalStack=0;resizeParent=1;resizeParentMax=0;resizeLast=0;collapsible=1;marginBottom=0;" parent="1" vertex="1">
                    <mxGeometry x="510" y="700" width="370" height="194" as="geometry">
                        <mxRectangle x="160" y="110" width="100" height="26" as="alternateBounds"/>
                    </mxGeometry>
                </mxCell>
                <mxCell id="28" value="+ id: integer&#10;+ name: Char()&#10;+ department_id: Many2one('hr.employee')&#10;+ position: Char(compute=_compute_position,readonly=True) -nw-&#10;+ user_id: Many2one('res.users')&#10;+ business_trip_count: Integer() -nw-&#10;+ business_trip_ids: One2many('fleet_business_trip') -nw-&#10;+ business_rent_count: Integer() -nw-&#10;+ business_rent_ids: One2many('fleet_business_rent') -nw-" style="text;strokeColor=none;fillColor=none;align=left;verticalAlign=top;spacingLeft=4;spacingRight=4;overflow=hidden;rotatable=0;points=[[0,0.5],[1,0.5]];portConstraint=eastwest;" parent="27" vertex="1">
                    <mxGeometry y="26" width="370" height="134" as="geometry"/>
                </mxCell>
                <mxCell id="29" value="" style="line;strokeWidth=1;fillColor=none;align=left;verticalAlign=middle;spacingTop=-1;spacingLeft=3;spacingRight=3;rotatable=0;labelPosition=right;points=[];portConstraint=eastwest;" parent="27" vertex="1">
                    <mxGeometry y="160" width="370" height="8" as="geometry"/>
                </mxCell>
                <mxCell id="30" value="+ method(type): type" style="text;strokeColor=none;fillColor=none;align=left;verticalAlign=top;spacingLeft=4;spacingRight=4;overflow=hidden;rotatable=0;points=[[0,0.5],[1,0.5]];portConstraint=eastwest;" parent="27" vertex="1">
                    <mxGeometry y="168" width="370" height="26" as="geometry"/>
                </mxCell>
                <mxCell id="39" value="1..1" style="endArrow=none;html=1;exitX=0.001;exitY=0.116;exitDx=0;exitDy=0;exitPerimeter=0;fontSize=16;" parent="1" source="8" edge="1">
                    <mxGeometry x="-0.8421" width="50" height="50" relative="1" as="geometry">
                        <mxPoint x="970" y="960" as="sourcePoint"/>
                        <mxPoint x="1020" y="769" as="targetPoint"/>
                        <Array as="points">
                            <mxPoint x="980" y="941"/>
                            <mxPoint x="980" y="769"/>
                        </Array>
                        <mxPoint as="offset"/>
                    </mxGeometry>
                </mxCell>
                <mxCell id="40" value="1..*" style="edgeLabel;html=1;align=center;verticalAlign=middle;resizable=0;points=[];fontSize=16;" parent="39" vertex="1" connectable="0">
                    <mxGeometry x="-0.4382" y="3" relative="1" as="geometry">
                        <mxPoint x="22" y="-140" as="offset"/>
                    </mxGeometry>
                </mxCell>
                <mxCell id="46" value="1..1" style="endArrow=none;html=1;fontSize=16;" parent="1" edge="1">
                    <mxGeometry x="0.8479" width="50" height="50" relative="1" as="geometry">
                        <mxPoint x="583" y="741" as="sourcePoint"/>
                        <mxPoint x="1020" y="968" as="targetPoint"/>
                        <Array as="points">
                            <mxPoint x="920" y="741"/>
                            <mxPoint x="920" y="968"/>
                            <mxPoint x="980" y="968"/>
                        </Array>
                        <mxPoint as="offset"/>
                    </mxGeometry>
                </mxCell>
                <mxCell id="56" value="&lt;span style=&quot;font-size: 16px&quot;&gt;1..1&lt;/span&gt;" style="edgeLabel;html=1;align=center;verticalAlign=middle;resizable=0;points=[];" parent="46" vertex="1" connectable="0">
                    <mxGeometry x="0.0949" y="2" relative="1" as="geometry">
                        <mxPoint x="-22" y="-27" as="offset"/>
                    </mxGeometry>
                </mxCell>
                <mxCell id="54" value="Extends" style="endArrow=block;endSize=16;endFill=0;html=1;exitX=1.001;exitY=0.074;exitDx=0;exitDy=0;exitPerimeter=0;entryX=-0.001;entryY=0.074;entryDx=0;entryDy=0;entryPerimeter=0;" parent="1" source="27" target="2" edge="1">
                    <mxGeometry width="160" relative="1" as="geometry">
                        <mxPoint x="870" y="710" as="sourcePoint"/>
                        <mxPoint x="1030" y="710" as="targetPoint"/>
                    </mxGeometry>
                </mxCell>
                <mxCell id="81" value="res_users (nhân viên [odoo])" style="swimlane;fontStyle=1;align=center;verticalAlign=top;childLayout=stackLayout;horizontal=1;startSize=26;horizontalStack=0;resizeParent=1;resizeParentMax=0;resizeLast=0;collapsible=1;marginBottom=0;" parent="1" vertex="1">
                    <mxGeometry x="1020" y="450" width="380" height="174" as="geometry">
                        <mxRectangle x="160" y="110" width="100" height="26" as="alternateBounds"/>
                    </mxGeometry>
                </mxCell>
                <mxCell id="82" value="+ id: integer&#10;+ name: Char()&#10;+ employee_id: Many2one('hr_employee')[0..1]&#10;+ department_id: Many2one(related=employee_id.department_id)&#10;+ position: Char(related=employee_id.position) -nw-" style="text;strokeColor=none;fillColor=none;align=left;verticalAlign=top;spacingLeft=4;spacingRight=4;overflow=hidden;rotatable=0;points=[[0,0.5],[1,0.5]];portConstraint=eastwest;" parent="81" vertex="1">
                    <mxGeometry y="26" width="380" height="114" as="geometry"/>
                </mxCell>
                <mxCell id="83" value="" style="line;strokeWidth=1;fillColor=none;align=left;verticalAlign=middle;spacingTop=-1;spacingLeft=3;spacingRight=3;rotatable=0;labelPosition=right;points=[];portConstraint=eastwest;" parent="81" vertex="1">
                    <mxGeometry y="140" width="380" height="8" as="geometry"/>
                </mxCell>
                <mxCell id="84" value="+ method(type): type" style="text;strokeColor=none;fillColor=none;align=left;verticalAlign=top;spacingLeft=4;spacingRight=4;overflow=hidden;rotatable=0;points=[[0,0.5],[1,0.5]];portConstraint=eastwest;" parent="81" vertex="1">
                    <mxGeometry y="148" width="380" height="26" as="geometry"/>
                </mxCell>
                <mxCell id="95" value="Use" style="endArrow=open;endSize=12;dashed=1;html=1;fontColor=#F0F0F0;" parent="1" source="81" target="2" edge="1">
                    <mxGeometry width="160" relative="1" as="geometry">
                        <mxPoint x="1140" y="640" as="sourcePoint"/>
                        <mxPoint x="1060" y="650" as="targetPoint"/>
                    </mxGeometry>
                </mxCell>
                <mxCell id="120" value="1" style="edgeLabel;html=1;align=center;verticalAlign=middle;resizable=0;points=[];fontColor=#F0F0F0;" parent="95" vertex="1" connectable="0">
                    <mxGeometry x="-0.6458" y="-1" relative="1" as="geometry">
                        <mxPoint x="13" as="offset"/>
                    </mxGeometry>
                </mxCell>
                <mxCell id="121" value="0..1" style="edgeLabel;html=1;align=center;verticalAlign=middle;resizable=0;points=[];fontColor=#F0F0F0;" parent="95" vertex="1" connectable="0">
                    <mxGeometry x="0.4172" y="-2" relative="1" as="geometry">
                        <mxPoint x="22" y="13" as="offset"/>
                    </mxGeometry>
                </mxCell>
                <mxCell id="96" value="res_users (trưởng phòng [odoo])" style="swimlane;fontStyle=1;align=center;verticalAlign=top;childLayout=stackLayout;horizontal=1;startSize=26;horizontalStack=0;resizeParent=1;resizeParentMax=0;resizeLast=0;collapsible=1;marginBottom=0;" parent="1" vertex="1">
                    <mxGeometry x="510" y="450" width="370" height="174" as="geometry">
                        <mxRectangle x="160" y="110" width="100" height="26" as="alternateBounds"/>
                    </mxGeometry>
                </mxCell>
                <mxCell id="97" value="+ id: integer&#10;+ name: Char()&#10;+ employee_id: Many2one('hr_employee')[0..1]&#10;+ department_id: Many2one(related=employee_id.department_id)&#10;+ position: Char(related=employee_id.position) -nw-" style="text;strokeColor=none;fillColor=none;align=left;verticalAlign=top;spacingLeft=4;spacingRight=4;overflow=hidden;rotatable=0;points=[[0,0.5],[1,0.5]];portConstraint=eastwest;" parent="96" vertex="1">
                    <mxGeometry y="26" width="370" height="114" as="geometry"/>
                </mxCell>
                <mxCell id="98" value="" style="line;strokeWidth=1;fillColor=none;align=left;verticalAlign=middle;spacingTop=-1;spacingLeft=3;spacingRight=3;rotatable=0;labelPosition=right;points=[];portConstraint=eastwest;" parent="96" vertex="1">
                    <mxGeometry y="140" width="370" height="8" as="geometry"/>
                </mxCell>
                <mxCell id="99" value="+ method(type): type" style="text;strokeColor=none;fillColor=none;align=left;verticalAlign=top;spacingLeft=4;spacingRight=4;overflow=hidden;rotatable=0;points=[[0,0.5],[1,0.5]];portConstraint=eastwest;" parent="96" vertex="1">
                    <mxGeometry y="148" width="370" height="26" as="geometry"/>
                </mxCell>
                <mxCell id="115" value="Use" style="endArrow=open;endSize=12;dashed=1;html=1;fontColor=#F0F0F0;" parent="1" source="96" target="27" edge="1">
                    <mxGeometry width="160" relative="1" as="geometry">
                        <mxPoint x="439.6319018404911" y="660" as="sourcePoint"/>
                        <mxPoint x="400" y="736" as="targetPoint"/>
                    </mxGeometry>
                </mxCell>
                <mxCell id="126" value="1" style="edgeLabel;html=1;align=center;verticalAlign=middle;resizable=0;points=[];fontColor=#F0F0F0;" parent="115" vertex="1" connectable="0">
                    <mxGeometry x="-0.7023" relative="1" as="geometry">
                        <mxPoint x="12" as="offset"/>
                    </mxGeometry>
                </mxCell>
                <mxCell id="128" value="1" style="edgeLabel;html=1;align=center;verticalAlign=middle;resizable=0;points=[];fontColor=#F0F0F0;" parent="115" vertex="1" connectable="0">
                    <mxGeometry x="0.5091" y="1" relative="1" as="geometry">
                        <mxPoint x="12" y="8" as="offset"/>
                    </mxGeometry>
                </mxCell>
                <mxCell id="116" value="fleet_business_trip (mượn xe đi công tác) -nw-" style="swimlane;fontStyle=1;align=center;verticalAlign=top;childLayout=stackLayout;horizontal=1;startSize=26;horizontalStack=0;resizeParent=1;resizeParentMax=0;resizeLast=0;collapsible=1;marginBottom=0;labelBackgroundColor=none;fontColor=#F0F0F0;" parent="1" vertex="1">
                    <mxGeometry x="880" y="-170" width="520" height="524" as="geometry"/>
                </mxCell>
                <mxCell id="117" value="+ id: integer&#10;+ name: Char() -ir.sequence('TR****')-&#10;+ attending_employee_ids: One2many('hr_employee')[1..*]&#10;+ pick_time: Datetime(default=Datetime.now)[1..1]&#10;+ return_time: Datetime()[1..1]&#10;+ to_time: Datetime(compute='_compute_to_time')&#10;+ to_return_time: Datetime(compute='_compute_to_return_time')&#10;+ to_street: Char()[1..1]&#10;+ to_street2: Char()[0..1]&#10;+ to_zip: Char()[1..1]&#10;+ to_city: Char()[1..1]&#10;+ to_state_id: Many2one('res.country.state')[0..1]&#10;+ to_country_id: Many2one('res.country',&#10;default=lambda self: self.env.company.country_id,readonly=True)[1..1]&#10;+ pick_address_id: Many2one('res.partner',compute='_compute_address_id')&#10;,domain=&quot;[('company_id', '=', True), ('company_id', '=', self.env.company.id)]&quot;)&#10;+ vehicle_id: Many2one('fleet_vehicle')&#10;+ self_driving: Boolean()&#10;+ driver: Many2one('hr.employee',domain=&quot;[('department_id','=','fleet')]&quot;)&#10;+ intent: Text()[1..1]&#10;+ note: Text()[0..1]&#10;+ tags_ids: Many2many('fleet_business_tag')[0..*]&#10;+ overseer_manager_id: Many2one('res.user')&#10;+ approval_manager: Selection(['denied','deciding','approved'],default='deciding')&#10;+ overseer_admin_id: Many2one('res.user')&#10;+ approval_admin: Selection(['denied','deciding','approved'],default='deciding')&#10;+ overseer_fleet_id: Many2one('res.user')&#10;+ approval_fleet: Selection(['denied','deciding','approved'],default='deciding')&#10;+ overseer_creator_id: Many2one('res.user',default=create.uid)&#10;+ approval_creator: Selection(['denied','deciding','approved'],default='deciding')&#10;+ state: Selection(['draft','not_approved','approved','ready','departing','returning','late','returned'],&#10;default='draft',compute='_compute_state',store=True)" style="text;strokeColor=none;fillColor=none;align=left;verticalAlign=top;spacingLeft=4;spacingRight=4;overflow=hidden;rotatable=0;points=[[0,0.5],[1,0.5]];portConstraint=eastwest;labelBackgroundColor=none;fontColor=#F0F0F0;" parent="116" vertex="1">
                    <mxGeometry y="26" width="520" height="464" as="geometry"/>
                </mxCell>
                <mxCell id="118" value="" style="line;strokeWidth=1;fillColor=none;align=left;verticalAlign=middle;spacingTop=-1;spacingLeft=3;spacingRight=3;rotatable=0;labelPosition=right;points=[];portConstraint=eastwest;labelBackgroundColor=none;fontColor=#F0F0F0;" parent="116" vertex="1">
                    <mxGeometry y="490" width="520" height="8" as="geometry"/>
                </mxCell>
                <mxCell id="119" value="+ method(type): type" style="text;strokeColor=none;fillColor=none;align=left;verticalAlign=top;spacingLeft=4;spacingRight=4;overflow=hidden;rotatable=0;points=[[0,0.5],[1,0.5]];portConstraint=eastwest;labelBackgroundColor=none;fontColor=#F0F0F0;" parent="116" vertex="1">
                    <mxGeometry y="498" width="520" height="26" as="geometry"/>
                </mxCell>
                <mxCell id="129" value="fleet_business_tag (thẻ công tác) -nw-" style="swimlane;fontStyle=1;align=center;verticalAlign=top;childLayout=stackLayout;horizontal=1;startSize=26;horizontalStack=0;resizeParent=1;resizeParentMax=0;resizeLast=0;collapsible=1;marginBottom=0;" vertex="1" parent="1">
                    <mxGeometry x="1520" y="-170" width="260" height="134" as="geometry">
                        <mxRectangle x="160" y="110" width="100" height="26" as="alternateBounds"/>
                    </mxGeometry>
                </mxCell>
                <mxCell id="130" value="+ id: integer&#10;+ name: Char()&#10;+ active: Boolean()&#10;+ color: Integer()" style="text;strokeColor=none;fillColor=none;align=left;verticalAlign=top;spacingLeft=4;spacingRight=4;overflow=hidden;rotatable=0;points=[[0,0.5],[1,0.5]];portConstraint=eastwest;" vertex="1" parent="129">
                    <mxGeometry y="26" width="260" height="74" as="geometry"/>
                </mxCell>
                <mxCell id="131" value="" style="line;strokeWidth=1;fillColor=none;align=left;verticalAlign=middle;spacingTop=-1;spacingLeft=3;spacingRight=3;rotatable=0;labelPosition=right;points=[];portConstraint=eastwest;" vertex="1" parent="129">
                    <mxGeometry y="100" width="260" height="8" as="geometry"/>
                </mxCell>
                <mxCell id="132" value="+ method(type): type" style="text;strokeColor=none;fillColor=none;align=left;verticalAlign=top;spacingLeft=4;spacingRight=4;overflow=hidden;rotatable=0;points=[[0,0.5],[1,0.5]];portConstraint=eastwest;" vertex="1" parent="129">
                    <mxGeometry y="108" width="260" height="26" as="geometry"/>
                </mxCell>
                <mxCell id="133" value="fleet_business_rent (hỗ trợ mua vé đi công tác) -nw-" style="swimlane;fontStyle=1;align=center;verticalAlign=top;childLayout=stackLayout;horizontal=1;startSize=26;horizontalStack=0;resizeParent=1;resizeParentMax=0;resizeLast=0;collapsible=1;marginBottom=0;labelBackgroundColor=none;fontColor=#F0F0F0;" vertex="1" parent="1">
                    <mxGeometry x="270" y="-170" width="520" height="524" as="geometry"/>
                </mxCell>
                <mxCell id="134" value="+ id: integer&#10;+ name: Char() -ir.sequence('TR****')-&#10;+ attending_employee_ids: One2many('hr_employee')[1..*]&#10;+ pick_time: Datetime(default=Datetime.now)[1..1]&#10;+ return_time: Datetime()[1..1]&#10;+ to_time: Datetime(compute='_compute_to_time')&#10;+ to_return_time: Datetime(compute='_compute_to_return_time')&#10;+ to_street: Char()[1..1]&#10;+ to_street2: Char()[0..1]&#10;+ to_zip: Char()[1..1]&#10;+ to_city: Char()[1..1]&#10;+ to_state_id: Many2one('res.country.state')[0..1]&#10;+ to_country_id: Many2one('res.country',&#10;default=lambda self: self.env.company.country_id,readonly=True)[1..1]&#10;+ pick_address_id: Many2one('res.partner',compute='_compute_address_id')&#10;,domain=&quot;[('company_id', '=', True), ('company_id', '=', self.env.company.id)]&quot;)&#10;+ vehicle_id: Many2one('fleet_vehicle')&#10;+ self_driving: Boolean()&#10;+ driver: Many2one('hr.employee',domain=&quot;[('department_id','=','fleet')]&quot;)&#10;+ intent: Text()[1..1]&#10;+ note: Text()[0..1]&#10;+ tags_ids: Many2many('fleet_business_tag')[0..*]&#10;+ overseer_manager_id: Many2one('res.user')&#10;+ approval_manager: Selection(['denied','deciding','approved'],default='deciding')&#10;+ overseer_admin_id: Many2one('res.user')&#10;+ approval_admin: Selection(['denied','deciding','approved'],default='deciding')&#10;+ overseer_fleet_id: Many2one('res.user')&#10;+ approval_fleet: Selection(['denied','deciding','approved'],default='deciding')&#10;+ overseer_creator_id: Many2one('res.user',default=create.uid)&#10;+ approval_creator: Selection(['denied','deciding','approved'],default='deciding')&#10;+ state: Selection(['draft','not_approved','approved','ready','departing','returning','late','returned'],&#10;default='draft',compute='_compute_state',store=True)" style="text;strokeColor=none;fillColor=none;align=left;verticalAlign=top;spacingLeft=4;spacingRight=4;overflow=hidden;rotatable=0;points=[[0,0.5],[1,0.5]];portConstraint=eastwest;labelBackgroundColor=none;fontColor=#F0F0F0;" vertex="1" parent="133">
                    <mxGeometry y="26" width="520" height="464" as="geometry"/>
                </mxCell>
                <mxCell id="135" value="" style="line;strokeWidth=1;fillColor=none;align=left;verticalAlign=middle;spacingTop=-1;spacingLeft=3;spacingRight=3;rotatable=0;labelPosition=right;points=[];portConstraint=eastwest;labelBackgroundColor=none;fontColor=#F0F0F0;" vertex="1" parent="133">
                    <mxGeometry y="490" width="520" height="8" as="geometry"/>
                </mxCell>
                <mxCell id="136" value="+ method(type): type" style="text;strokeColor=none;fillColor=none;align=left;verticalAlign=top;spacingLeft=4;spacingRight=4;overflow=hidden;rotatable=0;points=[[0,0.5],[1,0.5]];portConstraint=eastwest;labelBackgroundColor=none;fontColor=#F0F0F0;" vertex="1" parent="133">
                    <mxGeometry y="498" width="520" height="26" as="geometry"/>
                </mxCell>
            </root>
        </mxGraphModel>
    </diagram>
</mxfile>